<svg width="16" height="15" viewBox="0 0 16 15" fill="none" xmlns="http://www.w3.org/2000/svg">
<mask id="mask0_2_270" style="mask-type:alpha" maskUnits="userSpaceOnUse" x="1" y="0" width="14" height="15">
<path fill-rule="evenodd" clip-rule="evenodd" d="M9.82121 9.90817C9.79094 10.1039 9.75718 10.2946 9.72018 10.4798C9.54127 10.4193 9.35922 10.3531 9.1746 10.2815C9.28293 10.2219 9.39133 10.1608 9.49972 10.0983C9.60819 10.0356 9.71537 9.97225 9.82121 9.90817ZM10.9194 9.18542C10.8655 9.73742 10.7858 10.2651 10.6836 10.7606C10.9814 10.8325 11.2658 10.8864 11.5334 10.9222C12.1634 11.0065 12.6496 10.9837 12.984 10.8989C13.3141 10.8152 13.4128 10.6965 13.4435 10.6432C13.4743 10.5899 13.5278 10.4452 13.4352 10.1174C13.3415 9.78537 13.118 9.35292 12.7301 8.84954C12.5652 8.63555 12.3763 8.41615 12.165 8.19411C11.7872 8.53024 11.3703 8.86295 10.9194 9.18542ZM11.4402 7.50017C11.2984 7.62466 11.1503 7.7491 10.9962 7.87301C10.9987 7.74946 11 7.6251 11 7.50001C11 7.37503 10.9987 7.25078 10.9962 7.12735C11.1503 7.25125 11.2984 7.37568 11.4402 7.50017ZM12.885 7.50015C14.2147 8.89609 14.8132 10.2709 14.3095 11.1432C13.8059 12.0155 12.3162 12.1846 10.4426 11.7311C9.8985 13.5803 9.00723 14.7857 8.00004 14.7857C6.9928 14.7857 6.10149 13.5802 5.55741 11.7309C3.6836 12.1845 2.19377 12.0154 1.69011 11.143C1.18648 10.2707 1.78487 8.89604 3.11446 7.50015C1.78502 6.10434 1.18672 4.72976 1.69033 3.85749C2.19395 2.98519 3.68364 2.81606 5.55729 3.26956C6.10136 1.41999 6.99272 0.214294 8.00004 0.214294C9.00731 0.214294 9.89863 1.41988 10.4427 3.26931C12.3162 2.81591 13.8057 2.98507 14.3093 3.85733C14.813 4.72963 14.2146 6.10428 12.885 7.50015ZM10.6837 4.23986C10.9814 4.168 11.2656 4.11414 11.5332 4.07835C12.1631 3.99408 12.6494 4.01681 12.9838 4.10162C13.3139 4.18535 13.4126 4.30406 13.4433 4.35733C13.4741 4.41059 13.5276 4.55535 13.435 4.88313C13.3412 5.21516 13.1178 5.64761 12.7299 6.15099C12.565 6.36491 12.3762 6.58423 12.165 6.80621C11.7872 6.4701 11.3703 6.13742 10.9194 5.81498C10.8656 5.263 10.7859 4.73531 10.6837 4.23986ZM9.4817 3.54588C9.39505 3.25197 9.29952 2.97874 9.19668 2.72898C8.9547 2.14133 8.69191 1.73161 8.45124 1.4844C8.21366 1.24035 8.06154 1.21429 8.00004 1.21429C7.93853 1.21429 7.78641 1.24035 7.54883 1.4844C7.30817 1.73161 7.04537 2.14133 6.80339 2.72898C6.70052 2.97881 6.60496 3.25214 6.51829 3.54615C6.99829 3.70526 7.49492 3.90001 7.99965 4.12928C8.50461 3.89989 9.00148 3.70504 9.4817 3.54588ZM9.17464 4.71893C9.35928 4.64728 9.54134 4.58116 9.72026 4.52058C9.75725 4.70582 9.79101 4.89654 9.82128 5.09226C9.71549 5.02822 9.60836 4.96487 9.49994 4.90227C9.39149 4.83966 9.28303 4.77854 9.17464 4.71893ZM7.99966 5.23493C8.32975 5.3966 8.66409 5.5744 8.99994 5.7683C9.33574 5.96217 9.65684 6.16279 9.96185 6.3678C9.98687 6.73427 10 7.11247 10 7.50001C10 7.88768 9.98686 8.26601 9.96183 8.6326C9.65676 8.83765 9.33559 9.03832 8.99972 9.23223C8.66395 9.42609 8.32968 9.60385 7.99966 9.76549C7.66974 9.6039 7.33559 9.42619 6.99994 9.2324C6.66423 9.03858 6.34321 8.83802 6.03827 8.63307C6.01323 8.26633 6.00003 7.88785 6.00003 7.50001C6.00003 7.1123 6.01322 6.73395 6.03825 6.36733C6.34313 6.16243 6.66409 5.96191 6.99972 5.76813C7.33545 5.5743 7.66968 5.39655 7.99966 5.23493ZM6.82467 4.71896C6.64027 4.64741 6.45845 4.58137 6.27975 4.52087C6.24281 4.70587 6.2091 4.89634 6.17887 5.09181C6.2845 5.02786 6.39147 4.9646 6.49972 4.9021C6.60805 4.83956 6.7164 4.77851 6.82467 4.71896ZM5.08072 5.81448C5.13453 5.26278 5.21416 4.73534 5.31635 4.24012C5.01851 4.16821 4.73413 4.11433 4.46643 4.07851C3.83652 3.99424 3.35029 4.01697 3.01587 4.10179C2.68573 4.18552 2.5871 4.30423 2.55635 4.35749C2.5256 4.41076 2.47211 4.55552 2.56467 4.8833C2.65842 5.21533 2.88185 5.64777 3.26979 6.15116C3.4346 6.36502 3.62339 6.58428 3.8345 6.8062C4.21244 6.46992 4.6296 6.13708 5.08072 5.81448ZM3.83448 8.19412C4.21244 8.53042 4.62962 8.86329 5.08076 9.18591C5.13458 9.73764 5.21423 10.2651 5.31644 10.7603C5.01848 10.8323 4.73401 10.8862 4.46621 10.922C3.8363 11.0063 3.35008 10.9836 3.01566 10.8987C2.68551 10.815 2.58689 10.6963 2.55614 10.643C2.52538 10.5898 2.47189 10.445 2.56445 10.1172C2.65821 9.7852 2.88164 9.35275 3.26957 8.84937C3.43444 8.63544 3.62329 8.41611 3.83448 8.19412ZM6.27984 10.4796C6.24289 10.2946 6.20917 10.1041 6.17893 9.90863C6.28461 9.97261 6.39163 10.0359 6.49994 10.0984C6.60821 10.1609 6.71649 10.222 6.8247 10.2815C6.64032 10.353 6.45852 10.4191 6.27984 10.4796ZM6.51841 11.4543C6.60505 11.7481 6.70057 12.0213 6.80339 12.271C7.04537 12.8587 7.30817 13.2684 7.54883 13.5156C7.78641 13.7597 7.93853 13.7857 8.00004 13.7857C8.06154 13.7857 8.21366 13.7597 8.45124 13.5156C8.69191 13.2684 8.9547 12.8587 9.19668 12.271C9.29947 12.0214 9.39496 11.7483 9.48158 11.4545C9.0014 11.2954 8.50457 11.1005 7.99964 10.8712C7.49496 11.1004 6.99837 11.2952 6.51841 11.4543ZM4.55932 7.50017C4.70124 7.37551 4.84953 7.25091 5.0039 7.12684C5.00133 7.25044 5.00003 7.37486 5.00003 7.50001C5.00003 7.62527 5.00134 7.7498 5.00391 7.87351C4.84953 7.74944 4.70124 7.62483 4.55932 7.50017ZM8.00004 7.92858C8.23673 7.92858 8.42861 7.73671 8.42861 7.50001C8.42861 7.26332 8.23673 7.07144 8.00004 7.07144C7.76335 7.07144 7.57147 7.26332 7.57147 7.50001C7.57147 7.73671 7.76335 7.92858 8.00004 7.92858Z" fill="white"/>
</mask>
<g mask="url(#mask0_2_270)">
<rect x="0.5" width="15" height="15" fill="url(#paint0_linear_2_270)"/>
</g>
<defs>
<linearGradient id="paint0_linear_2_270" x1="0.5" y1="0" x2="15.5" y2="15" gradientUnits="userSpaceOnUse">
<stop offset="0.229167" stop-color="#FF2D55"/>
<stop offset="0.760417" stop-color="#AF52DE"/>
</linearGradient>
</defs>
</svg>
