<svg width="100" height="100" viewBox="0 0 100 100" fill="none" xmlns="http://www.w3.org/2000/svg">
<mask id="mask0_2_29" style="mask-type:alpha" maskUnits="userSpaceOnUse" x="5" y="0" width="90" height="100">
<path fill-rule="evenodd" clip-rule="evenodd" d="M32.309 35.7955C32.8708 31.3887 33.6864 27.2635 34.7107 23.5212C38.4639 24.5051 42.4444 25.8614 46.5419 27.5782C44.1324 28.7553 41.7065 30.0447 39.2838 31.4435C36.8617 32.8419 34.5326 34.2977 32.309 35.7955ZM29.1811 37.9797C29.7446 32.5323 30.6834 27.4327 31.9319 22.8515C30.2773 22.4888 28.6757 22.204 27.1374 21.9982C22.5361 21.3826 18.5749 21.4841 15.4847 22.2679C12.4006 23.05 10.3014 24.4757 9.17266 26.4308C8.04389 28.3859 7.8588 30.9168 8.72345 33.9787C9.58981 37.0468 11.4825 40.5281 14.3162 44.2051C15.2633 45.434 16.3103 46.6781 17.4513 47.9292C20.7953 44.5562 24.7437 41.1923 29.1811 37.9797ZM19.4206 50.001C22.1502 47.2416 25.3163 44.4716 28.8533 41.7806C28.6679 44.4561 28.5716 47.2021 28.5716 50C28.5716 52.7987 28.668 55.5455 28.8535 58.2218C25.3164 55.5306 22.1502 52.7605 19.4206 50.001ZM15.4742 50.0009C14.2296 48.644 13.0867 47.2903 12.0532 45.9491C9.08443 42.0969 6.97181 38.2894 5.97383 34.7552C4.97413 31.2149 5.06566 27.8301 6.69831 25.0023C8.33095 22.1744 11.2165 20.4028 14.7823 19.4984C18.342 18.5956 22.6958 18.5214 27.5163 19.1663C29.195 19.3909 30.9394 19.7039 32.7374 20.1034C33.2906 18.3456 33.8919 16.6777 34.5371 15.1109C36.3888 10.6138 38.63 6.88042 41.1917 4.24904C43.7578 1.61316 46.7349 0 50.0002 0C53.2655 0 56.2426 1.61316 58.8087 4.24904C61.3704 6.88042 63.6116 10.6138 65.4633 15.1109C66.1083 16.6773 66.7094 18.3446 67.2625 20.1018C69.0597 19.7025 70.8033 19.3897 72.4814 19.1652C77.3019 18.5203 81.6556 18.5945 85.2153 19.4973C88.7811 20.4016 91.6667 22.1733 93.2994 25.0012C94.932 27.829 95.0235 31.2138 94.0238 34.7541C93.0258 38.2883 90.9132 42.0958 87.9445 45.948C86.9107 47.2895 85.7675 48.6436 84.5225 50.0009C85.768 51.3587 86.9117 52.7133 87.946 54.0554C90.9147 57.9076 93.0273 61.7151 94.0253 65.2493C95.025 68.7896 94.9335 72.1744 93.3008 75.0022C91.6682 77.8301 88.7826 79.6018 85.2168 80.5061C81.6571 81.4089 77.3033 81.4831 72.4829 80.8382C70.804 80.6136 69.0597 80.3006 67.2616 79.901C66.7088 81.6572 66.1079 83.3236 65.4633 84.8891C63.6116 89.3862 61.3704 93.1196 58.8087 95.7509C56.2426 98.3868 53.2655 100 50.0002 100C46.7349 100 43.7578 98.3868 41.1917 95.7509C38.63 93.1196 36.3888 89.3862 34.5371 84.8891C33.8923 83.3231 33.2912 81.6562 32.7383 79.8994C30.9394 80.2992 29.1943 80.6124 27.5148 80.8371C22.6943 81.482 18.3406 81.4078 14.7809 80.505C11.2151 79.6006 8.32949 77.829 6.69684 75.0011C5.0642 72.1733 4.97267 68.7885 5.97237 65.2482C6.97036 61.714 9.08297 57.9065 12.0517 54.0542C13.0857 52.7126 14.229 51.3584 15.4742 50.0009ZM31.9327 77.1514C30.2773 77.5143 28.675 77.7993 27.136 78.0052C22.5347 78.6208 18.5735 78.5193 15.4833 77.7355C12.3992 76.9534 10.3 75.5276 9.17121 73.5726C8.04243 71.6175 7.85733 69.0866 8.72198 66.0247C9.58835 62.9566 11.481 59.4753 14.3148 55.7983C15.2622 54.5689 16.3097 53.3242 17.4512 52.0727C20.7953 55.4458 24.7438 58.81 29.1814 62.0229C29.745 67.4704 30.684 72.5701 31.9327 77.1514ZM35.521 79.223C36.0341 80.837 36.5882 82.3663 37.179 83.8012C38.9466 88.0938 41.0151 91.4736 43.2389 93.7579C45.4583 96.0377 47.7426 97.1428 50.0002 97.1428C52.2578 97.1428 54.5421 96.0377 56.7615 93.7579C58.9853 91.4736 61.0538 88.0938 62.8214 83.8012C63.412 82.3668 63.9659 80.8381 64.4789 79.2247C59.8858 78.0151 54.9985 76.2777 49.9976 74.0412C44.9984 76.2768 40.1126 78.0136 35.521 79.223ZM46.542 72.4245C42.4448 74.1413 38.4645 75.4976 34.7115 76.4816C33.687 72.7394 32.8713 68.6141 32.3093 64.2072C34.5333 65.7052 36.8628 67.1613 39.2853 68.5599C41.7075 69.9584 44.133 71.2477 46.542 72.4245ZM49.9976 70.9031C46.9352 69.4898 43.8259 67.8823 40.7138 66.0856C37.6015 64.2887 34.6545 62.3994 31.899 60.4538C31.5915 57.0934 31.4288 53.5952 31.4288 50C31.4288 46.4057 31.5914 42.9084 31.8988 39.5488C34.6539 37.6034 37.6005 35.7145 40.7124 33.9178C43.8249 32.1208 46.9347 30.5131 49.9976 29.0996C53.0613 30.5134 56.1719 32.1214 59.2853 33.9189C62.3983 35.7162 65.3459 37.6059 68.1019 39.552C68.4091 42.9106 68.5716 46.4068 68.5716 50C68.5716 53.5941 68.409 57.0911 68.1017 60.4505C65.3454 62.3969 62.3973 64.2869 59.2838 66.0845C56.171 67.8817 53.0609 69.4895 49.9976 70.9031ZM53.4532 72.4246C57.5521 74.1422 61.534 75.4991 65.2884 76.4833C66.3134 72.7397 67.1294 68.6127 67.6915 64.2039C65.4666 65.7027 63.136 67.1595 60.7124 68.5588C58.2893 69.9578 55.863 71.2474 53.4532 72.4246ZM70.8194 62.0195C70.2557 67.4689 69.3165 72.5704 68.0673 77.153C69.7218 77.5157 71.3234 77.8005 72.8617 78.0063C77.463 78.6219 81.4242 78.5204 84.5144 77.7367C87.5985 76.9545 89.6977 75.5288 90.8265 73.5737C91.9552 71.6186 92.1403 69.0878 91.2757 66.0258C90.4093 62.9577 88.5166 59.4764 85.6829 55.7994C84.7352 54.5697 83.6873 53.3246 82.5454 52.0726C79.2023 55.4446 75.2552 58.8076 70.8194 62.0195ZM82.5453 47.9292C83.6867 46.6778 84.7341 45.4332 85.6814 44.204C88.5152 40.5269 90.4079 37.0457 91.2742 33.9776C92.1389 30.9156 91.9538 28.3848 90.825 26.4297C89.6962 24.4746 87.597 23.0489 84.5129 22.2667C81.4227 21.483 77.4615 21.3815 72.8603 21.9971C71.3227 22.2028 69.7218 22.4874 68.0681 22.8499C69.3171 27.4325 70.2561 32.5338 70.8197 37.983C75.2553 41.1947 79.2023 44.5574 82.5453 47.9292ZM64.4797 20.7781C63.9666 19.1637 63.4124 17.634 62.8214 16.1987C61.0538 11.9061 58.9853 8.52639 56.7615 6.24206C54.5421 3.96226 52.2578 2.85714 50.0002 2.85714C47.7426 2.85714 45.4583 3.96226 43.2389 6.24206C41.0151 8.52639 38.9466 11.9061 37.179 16.1987C36.5878 17.6345 36.0334 19.1647 35.5201 20.7798C40.112 21.989 44.998 23.7258 49.9976 25.9615C54.9988 23.7249 59.8865 21.9876 64.4797 20.7781ZM53.4533 27.5781C57.5525 25.8605 61.5346 24.5036 65.2892 23.5195C66.3141 27.2631 67.1299 31.39 67.6918 35.7987C65.4673 34.3002 63.1371 32.8436 60.7138 31.4446C58.2903 30.0454 55.8636 28.7555 53.4533 27.5781ZM80.5759 50.001C77.8474 52.7593 74.6826 55.5283 71.1471 58.2185C71.3325 55.5432 71.4288 52.7975 71.4288 50C71.4288 47.2033 71.3326 44.4584 71.1473 41.784C74.6826 44.4739 77.8474 47.2427 80.5759 50.001ZM52.8574 50C52.8574 51.578 51.5782 52.8572 50.0002 52.8572C48.4223 52.8572 47.1431 51.578 47.1431 50C47.1431 48.4221 48.4223 47.1429 50.0002 47.1429C51.5782 47.1429 52.8574 48.4221 52.8574 50Z" fill="white"/>
</mask>
<g mask="url(#mask0_2_29)">
<rect width="100" height="100" fill="url(#paint0_linear_2_29)"/>
</g>
<defs>
<linearGradient id="paint0_linear_2_29" x1="0" y1="0" x2="100" y2="100" gradientUnits="userSpaceOnUse">
<stop offset="0.229167" stop-color="#FF2D55"/>
<stop offset="0.760417" stop-color="#AF52DE"/>
</linearGradient>
</defs>
</svg>
